<svg width="3295" height="4556" fill="none" xmlns="http://www.w3.org/2000/svg"><path fill="#EEEFF5" d="M.8.357h3293.62v4554.67H.8z"/><path fill-rule="evenodd" clip-rule="evenodd" d="M668.436 1145.63c263.79 0 477.634-213.847 477.634-477.638 0-263.79-213.844-477.635-477.634-477.635-263.791 0-477.635 213.845-477.635 477.635 0 263.791 213.844 477.638 477.635 477.638Zm0 190c368.724 0 667.634-298.91 667.634-667.638C1336.07 299.268 1037.16.357 668.436.357 299.711.357.801 299.268.801 667.992c0 368.728 298.91 667.638 667.635 667.638ZM2088.23 4295.03c522.57 0 946.19-423.62 946.19-946.19s-423.62-946.19-946.19-946.19-946.19 423.62-946.19 946.19 423.62 946.19 946.19 946.19Zm0 260c666.16 0 1206.19-540.03 1206.19-1206.19 0-666.16-540.03-1206.19-1206.19-1206.19-666.16 0-1206.191 540.03-1206.191 1206.19 0 666.16 540.031 1206.19 1206.191 1206.19Z" fill="#E7E9F4"/></svg>